# File created by Blade
# Date/Time:  Thu Jan 22 15:33:01 2015
# Frame Rate: 120.000 fps
#------------------------------------------------------
:FULLY-SPECIFIED
:DEGREES
1960
root 5.322700 19.472729 5.647837 369.125069 -83.139533 -539.462722
RightUpLeg -92.866991 0.187338 0.493373
RightLeg 6.335258 -0.000000 -0.000000
RightFoot 40.849002 24.919881 -36.722302
RightToeBase -84.940737 -0.000000 0.000000
LeftUpLeg -90.214575 -6.807853 -7.837417
LeftLeg 4.620526 -0.000000 -0.000000
LeftFoot 35.607335 -4.288631 -4.647732
LeftToeBase 30.699365 -0.000000 -0.000000
Spine 9.972269 -2.850464 0.970529
RightShoulder -172.116248 35.375665 162.133432
RightArm 144.950996 59.314121 81.007533
RightForeArm 67.231434 -0.000000 104.487687
RightHand 14.609853 0.000000 -11.139630
RightHandThumb1 -24.326973 -0.000000 -32.862282
LeftShoulder -12.875187 53.351748 16.630442
LeftArm 10.293147 56.951230 -61.128696
LeftForeArm -26.809069 0.000000 108.558959
LeftHand -24.522901 -0.000000 -3.179571
LeftHandThumb1 -26.253704 0.000000 33.147579
Head 88.184493 2.471100 -23.102123
1961
root 5.389691 19.510556 5.659202 368.567727 -83.040753 -538.499169
RightUpLeg -92.273438 0.090343 0.721775
RightLeg 6.403364 -0.000000 -0.000000
RightFoot 40.687752 24.906430 -36.787207
RightToeBase -85.540800 -0.000000 0.000000
LeftUpLeg -89.536670 -6.812074 -8.097173
LeftLeg 4.595033 -0.000000 -0.000000
LeftFoot 35.628972 -4.200654 -4.788340
LeftToeBase 30.739104 -0.000000 -0.000000
Spine 9.288540 -2.958651 0.912818
RightShoulder -172.024353 35.576862 162.049246
RightArm 144.990396 59.417787 81.021143
RightForeArm 67.292428 0.000000 104.557884
RightHand 14.736052 -0.000000 -11.253399
RightHandThumb1 -24.326973 -0.000000 -32.862282
LeftShoulder -12.842283 53.270495 16.761639
LeftArm 9.915697 57.040666 -61.427334
LeftForeArm -26.763849 -0.000000 108.645140
LeftHand -24.473303 -0.000000 -3.135107
LeftHandThumb1 -26.253704 0.000000 33.147579
Head 88.303248 2.535840 -23.196373
1962
root 5.458671 19.545274 5.672880 368.014439 -82.925632 -537.563003
RightUpLeg -91.629114 -0.030478 0.952075
RightLeg 6.431573 -0.000000 -0.000000
RightFoot 40.593048 24.784856 -36.727087
RightToeBase -86.090823 -0.000000 0.000000
LeftUpLeg -88.831997 -6.837942 -8.323028
LeftLeg 4.558089 -0.000000 -0.000000
LeftFoot 35.648505 -4.272021 -4.674328
LeftToeBase 30.763160 -0.000000 -0.000000
Spine 8.622788 -3.091728 0.866276
RightShoulder -171.929190 35.778990 161.990054
RightArm 145.016740 59.467924 81.059119
RightForeArm 67.215574 -0.000000 104.600160
RightHand 14.849735 0.000000 -11.100186
RightHandThumb1 -24.326973 -0.000000 -32.862282
LeftShoulder -12.892232 53.289050 16.830936
LeftArm 9.793064 57.082873 -61.498881
LeftForeArm -26.688252 -0.000000 108.687959
LeftHand -24.352783 0.000000 -3.242615
LeftHandThumb1 -26.253704 0.000000 33.147579
Head 88.447080 2.615357 -23.302569
1963
root 5.526181 19.585109 5.682015 367.865963 -82.810435 -537.019487
RightUpLeg -91.003679 -0.136555 1.106447
RightLeg 6.493123 -0.000000 -0.000000
RightFoot 40.475734 24.653726 -36.733898
RightToeBase -86.711871 -0.000000 0.000000
LeftUpLeg -88.204028 -6.846380 -8.478974
LeftLeg 4.589897 -0.000000 -0.000000
LeftFoot 35.724678 -4.289890 -4.677137
LeftToeBase 30.738814 -0.000000 -0.000000
Spine 7.939408 -3.172539 0.873552
RightShoulder -171.799741 35.966468 161.904507
RightArm 145.025877 59.571271 81.050974
RightForeArm 67.251861 -0.000000 104.673432
RightHand 14.782168 -0.000000 -11.136538
RightHandThumb1 -24.326973 -0.000000 -32.862282
LeftShoulder -12.902361 53.275870 16.989680
LeftArm 9.770124 57.186055 -61.471520
LeftForeArm -26.829245 -0.000000 108.734396
LeftHand -24.365931 0.000000 -3.183265
LeftHandThumb1 -26.253704 0.000000 33.147579
Head 88.549236 2.671065 -23.430405
1964
root 5.594566 19.622731 5.691300 367.720584 -82.672107 -536.541225
RightUpLeg -90.352820 -0.283206 1.398576
RightLeg 6.624387 -0.000000 -0.000000
RightFoot 40.564560 24.369921 -36.401398
RightToeBase -87.314575 -0.000000 0.000000
LeftUpLeg -87.510892 -6.873678 -8.457645
LeftLeg 4.588250 -0.000000 -0.000000
LeftFoot 35.736465 -4.288788 -4.698610
LeftToeBase 30.701302 -0.000000 -0.000000
Spine 7.313916 -3.277291 0.877732
RightShoulder -171.707286 36.161903 161.824439
RightArm 145.047740 59.607075 81.046715
RightForeArm 67.323897 -0.000000 104.790802
RightHand 14.675333 -0.000000 -11.285959
RightHandThumb1 -24.326973 -0.000000 -32.862282
LeftShoulder -12.899603 53.343844 17.140264
LeftArm 9.802280 57.245850 -61.432315
LeftForeArm -26.698732 0.000000 108.795437
LeftHand -24.355820 -0.000000 -3.250191
LeftHandThumb1 -26.253704 0.000000 33.147579
Head 88.719911 2.685165 -23.414091
1965
root 5.665922 19.650583 5.695510 367.847550 -82.644261 -536.538833
RightUpLeg -89.473435 -0.318422 1.874595
RightLeg 6.685339 -0.000000 -0.000000
RightFoot 40.805044 24.167566 -36.055296
RightToeBase -87.468879 -0.000000 0.000000
LeftUpLeg -86.645765 -6.735994 -8.454454
LeftLeg 4.631226 -0.000000 -0.000000
LeftFoot 35.760683 -4.366069 -4.757165
LeftToeBase 30.812404 -0.000000 -0.000000
Spine 6.923932 -3.255077 0.902128
RightShoulder -171.594929 36.254051 161.796215
RightArm 144.936591 59.576471 80.915312
RightForeArm 67.190477 -0.000000 104.829928
RightHand 14.729560 -0.000000 -11.244904
RightHandThumb1 -24.326973 -0.000000 -32.862282
LeftShoulder -12.907773 53.407622 17.230103
LeftArm 9.936677 57.253916 -61.272429
LeftForeArm -26.730673 -0.000000 108.861040
LeftHand -24.358321 -0.000000 -3.210381
LeftHandThumb1 -26.253704 0.000000 33.147579
Head 88.906122 2.719583 -23.437768
1966
root 5.732499 19.681004 5.695365 368.101143 -82.615954 -536.725371
RightUpLeg -88.482061 -0.344852 2.029179
RightLeg 6.706628 -0.000000 -0.000000
RightFoot 40.988014 23.952743 -35.729275
RightToeBase -87.916973 -0.000000 0.000000
LeftUpLeg -85.751470 -6.617773 -8.147047
LeftLeg 4.645642 -0.000000 -0.000000
LeftFoot 35.777681 -4.350420 -4.663336
LeftToeBase 30.983198 -0.000000 -0.000000
Spine 6.630994 -3.195805 0.934894
RightShoulder -171.463910 36.348272 161.785489
RightArm 144.829312 59.513319 80.773407
RightForeArm 67.180900 0.000000 104.885669
RightHand 14.712241 0.000000 -11.284797
RightHandThumb1 -24.326973 -0.000000 -32.862282
LeftShoulder -12.797014 53.351323 17.453087
LeftArm 9.839024 57.352424 -61.338814
LeftForeArm -26.559929 -0.000000 108.929906
LeftHand -24.301225 -0.000000 -3.201838
LeftHandThumb1 -26.253704 0.000000 33.147579
Head 89.044487 2.694285 -23.452623
1967
root 5.800567 19.705942 5.692670 368.429845 -82.657971 -537.074257
RightUpLeg -87.378564 -0.290624 2.070761
RightLeg 6.704276 -0.000000 -0.000000
RightFoot 41.084303 23.846103 -35.652256
RightToeBase -88.419678 -0.000000 0.000000
LeftUpLeg -84.809533 -6.392183 -7.936485
LeftLeg 4.738980 -0.000000 -0.000000
LeftFoot 35.824256 -4.430533 -4.699833
LeftToeBase 30.916207 -0.000000 -0.000000
Spine 6.458798 -3.123000 0.951508
RightShoulder -171.340486 36.415456 161.805392
RightArm 144.826538 59.468337 80.754213
RightForeArm 67.200530 -0.000000 104.934341
RightHand 14.720461 -0.000000 -11.281831
RightHandThumb1 -24.326973 -0.000000 -32.862282
LeftShoulder -12.912487 53.359175 17.496000
LeftArm 9.948814 57.332572 -61.227359
LeftForeArm -26.701809 -0.000000 108.918780
LeftHand -24.154668 -0.000000 -3.356251
LeftHandThumb1 -26.253704 0.000000 33.147579
Head 89.174620 2.708730 -23.433235
1968
root 5.874901 19.715999 5.694036 368.545118 -82.636105 -537.210138
RightUpLeg -86.302704 -0.343498 2.342846
RightLeg 6.740997 -0.000000 -0.000000
RightFoot 41.143743 23.747491 -35.542529
RightToeBase -88.835046 -0.000000 0.000000
LeftUpLeg -83.839602 -6.207208 -7.970425
LeftLeg 4.855745 -0.000000 -0.000000
LeftFoot 35.900771 -4.767836 -4.690124
LeftToeBase 30.983769 -0.000000 -0.000000
Spine 6.353116 -3.225699 0.951575
RightShoulder -171.165839 36.412819 161.933773
RightArm 144.903301 59.444888 80.912279
RightForeArm 67.115992 -0.000000 104.987964
RightHand 14.647489 -0.000000 -11.314681
RightHandThumb1 -24.326973 -0.000000 -32.862282
LeftShoulder -13.522130 53.479054 17.035494
LeftArm 10.438748 57.287758 -60.669743
LeftForeArm -26.821131 -0.000000 108.900597
LeftHand -24.115072 -0.000000 -3.335132
LeftHandThumb1 -26.253704 0.000000 33.147579
Head 89.297807 2.867485 -23.491399
1969
root 5.941204 19.739074 5.694554 368.792509 -82.627034 -537.468406
RightUpLeg -85.249208 -0.372420 2.491719
RightLeg 6.717507 -0.000000 -0.000000
RightFoot 41.308798 23.524008 -35.279588
RightToeBase -89.205186 -0.000000 0.000000
LeftUpLeg -82.940093 -6.076595 -7.586912
LeftLeg 4.921354 -0.000000 -0.000000
LeftFoot 35.915049 -4.719313 -4.825087
LeftToeBase 31.263331 -0.000000 -0.000000
Spine 6.174189 -3.248352 0.968914
RightShoulder -171.110495 36.465022 161.906739
RightArm 144.864391 59.395480 80.846215
RightForeArm 67.125655 -0.000000 105.041152
RightHand 14.729010 0.000000 -11.386539
RightHandThumb1 -24.326973 -0.000000 -32.862282
LeftShoulder -13.689507 53.470278 17.018125
LeftArm 10.458931 57.322261 -60.639588
LeftForeArm -26.791259 0.000000 108.948621
LeftHand -24.167561 -0.000000 -3.321482
LeftHandThumb1 -26.253704 0.000000 33.147579
Head 89.395807 2.898841 -23.508454
1970
root 6.003736 19.771620 5.693480 369.159343 -82.600473 -537.774557
RightUpLeg -84.331371 -0.415917 2.654195
RightLeg 6.752257 -0.000000 -0.000000
RightFoot 41.334815 23.406763 -35.165546
RightToeBase -89.644963 -0.000000 0.000000
LeftUpLeg -82.152889 -5.996745 -7.081979
LeftLeg 4.977888 -0.000000 -0.000000
LeftFoot 35.959975 -4.633895 -5.017038
LeftToeBase 31.253542 -0.000000 -0.000000
Spine 5.857595 -3.186981 1.035225
RightShoulder -171.109948 36.695591 161.773740
RightArm 144.951030 59.286757 80.741625
RightForeArm 67.054080 0.000000 105.094459
RightHand 14.819623 -0.000000 -11.435851
RightHandThumb1 -24.326973 -0.000000 -32.862282
LeftShoulder -13.413030 53.338895 17.367195
LeftArm 10.087293 57.385967 -61.015757
LeftForeArm -26.764587 -0.000000 108.979415
LeftHand -24.040505 -0.000000 -3.427602
LeftHandThumb1 -26.253704 0.000000 33.147579
Head 89.505546 2.833806 -23.440402
